<svg width="312" height="299" viewBox="0 0 312 299" fill="none" xmlns="http://www.w3.org/2000/svg">
<rect width="312" height="299" fill="white"/>
<path d="M115.595 226.831C91.1807 226.831 73.1549 220.483 61.5176 207.788C49.9616 195.093 44.1836 175.358 44.1836 148.584C44.1836 97.0703 68.3535 71.3135 116.693 71.3135C123.285 71.3135 130.121 71.9645 137.201 73.2666C144.281 74.5687 150.181 76.3997 154.901 78.7598C159.703 81.0384 162.104 83.6019 162.104 86.4502C162.104 88.4847 161.29 91.1702 159.662 94.5068C158.035 97.762 156.081 100.651 153.803 103.174C151.605 105.697 149.652 106.958 147.943 106.958C147.536 106.958 146.438 106.551 144.647 105.737C140.741 104.11 136.632 102.767 132.318 101.709C128.087 100.57 122.675 100 116.083 100C103.306 100 93.8255 104.069 87.6406 112.207C81.5371 120.264 78.4854 132.471 78.4854 148.828C78.4854 165.186 81.5778 177.515 87.7627 185.815C93.9476 194.116 103.225 198.267 115.595 198.267C122.024 198.267 127.598 197.616 132.318 196.313C137.12 195.011 141.799 193.343 146.356 191.309C146.601 191.227 147.333 190.942 148.554 190.454C149.774 189.884 150.67 189.6 151.239 189.6C153.355 189.6 155.39 190.861 157.343 193.384C159.296 195.825 160.883 198.633 162.104 201.807C163.324 204.899 163.935 207.137 163.935 208.521C163.935 212.508 161.249 215.885 155.878 218.652C150.588 221.419 144.159 223.494 136.591 224.878C129.104 226.18 122.105 226.831 115.595 226.831ZM224.726 226.831C214.472 226.831 205.438 225.814 197.626 223.779C189.895 221.663 183.954 219.1 179.804 216.089C175.735 213.078 173.7 210.229 173.7 207.544C173.7 205.428 174.473 202.824 176.02 199.731C177.647 196.639 179.56 193.994 181.757 191.797C183.954 189.518 185.785 188.379 187.25 188.379C188.145 188.379 190.058 189.152 192.987 190.698C197.382 192.977 201.532 194.808 205.438 196.191C209.426 197.575 213.983 198.267 219.11 198.267C224.807 198.267 229.608 197.168 233.515 194.971C237.502 192.692 239.496 188.745 239.496 183.13C239.496 179.875 238.479 177.067 236.444 174.707C234.41 172.347 231.806 170.353 228.632 168.726C225.458 167.098 221.145 165.186 215.692 162.988L206.049 158.838C200.189 155.99 195.144 152.856 190.912 149.438C186.762 146.021 183.344 141.504 180.658 135.889C178.054 130.273 176.752 123.397 176.752 115.259C176.752 105.33 179.193 97.0703 184.076 90.4785C188.959 83.8867 195.307 79.0446 203.119 75.9521C210.932 72.8597 219.314 71.3135 228.266 71.3135C235.59 71.3135 242.222 72.0866 248.163 73.6328C254.104 75.0977 258.743 77.0101 262.079 79.3701C265.497 81.7301 267.206 84.0902 267.206 86.4502C267.206 88.4033 266.555 90.9261 265.253 94.0186C264.032 97.0296 262.486 99.6745 260.614 101.953C258.743 104.232 256.993 105.371 255.365 105.371C254.633 105.371 253.331 104.964 251.459 104.15C248.448 102.93 245.396 101.953 242.304 101.221C239.293 100.407 235.59 100 231.195 100C223.627 100 218.378 101.221 215.448 103.662C212.519 106.022 211.054 108.83 211.054 112.085C211.054 115.828 212.03 118.962 213.983 121.484C216.018 124.007 218.541 126.082 221.552 127.71C224.644 129.338 228.917 131.209 234.369 133.325C242.589 136.825 249.302 140.161 254.511 143.335C259.719 146.427 264.195 150.903 267.938 156.763C271.763 162.622 273.676 170.109 273.676 179.224C273.676 190.373 271.316 199.528 266.596 206.689C261.957 213.77 255.935 218.896 248.529 222.07C241.205 225.244 233.271 226.831 224.726 226.831Z" fill="#0060CD"/>
</svg>
