<svg width="239" height="61" viewBox="0 0 239 61" fill="none" xmlns="http://www.w3.org/2000/svg">
<rect width="239" height="61" fill="white"/>
<path d="M37.5938 21.7656H35.5781V19.75C35.5771 18.5832 35.2384 17.4415 34.6031 16.4629C33.9677 15.4842 33.0628 14.7102 31.9974 14.2344C30.932 13.7585 29.7517 13.601 28.5988 13.781C27.4459 13.9609 26.3697 14.4705 25.5 15.2484C24.732 14.5614 23.8012 14.082 22.7959 13.8557C21.7906 13.6294 20.7442 13.6638 19.7559 13.9556C18.7677 14.2474 17.8703 14.7869 17.1492 15.5229C16.428 16.2589 15.9068 17.167 15.6352 18.161C14.7181 17.7973 13.7259 17.6636 12.7453 17.7714C11.7646 17.8793 10.8252 18.2254 10.0091 18.7797C9.1929 19.334 8.52475 20.0795 8.0629 20.9513C7.60104 21.8231 7.35951 22.7947 7.35938 23.7812V30.5C7.35938 35.3112 9.27061 39.9253 12.6726 43.3274C16.0747 46.7294 20.6888 48.6406 25.5 48.6406C30.3112 48.6406 34.9253 46.7294 38.3274 43.3274C41.7294 39.9253 43.6406 35.3112 43.6406 30.5V27.8125C43.6406 26.2088 43.0035 24.6707 41.8695 23.5367C40.7355 22.4027 39.1975 21.7656 37.5938 21.7656ZM27.5156 19.75C27.5156 19.2154 27.728 18.7027 28.106 18.3247C28.484 17.9467 28.9967 17.7344 29.5312 17.7344C30.0658 17.7344 30.5785 17.9467 30.9565 18.3247C31.3345 18.7027 31.5469 19.2154 31.5469 19.75V21.7656H27.5156V19.75ZM19.4531 19.75C19.4531 19.2154 19.6655 18.7027 20.0435 18.3247C20.4215 17.9467 20.9342 17.7344 21.4688 17.7344C22.0033 17.7344 22.516 17.9467 22.894 18.3247C23.272 18.7027 23.4844 19.2154 23.4844 19.75V26.4687C23.4844 27.0033 23.272 27.516 22.894 27.894C22.516 28.272 22.0033 28.4844 21.4688 28.4844C20.9342 28.4844 20.4215 28.272 20.0435 27.894C19.6655 27.516 19.4531 27.0033 19.4531 26.4687V19.75ZM11.3906 23.7812C11.3906 23.2467 11.603 22.734 11.981 22.356C12.359 21.978 12.8717 21.7656 13.4062 21.7656C13.9408 21.7656 14.4535 21.978 14.8315 22.356C15.2095 22.734 15.4219 23.2467 15.4219 23.7812V26.4687C15.4219 27.0033 15.2095 27.516 14.8315 27.894C14.4535 28.272 13.9408 28.4844 13.4062 28.4844C12.8717 28.4844 12.359 28.272 11.981 27.894C11.603 27.516 11.3906 27.0033 11.3906 26.4687V23.7812ZM39.6094 30.5C39.6113 34.0955 38.2405 37.5561 35.7769 40.175C33.3134 42.7939 29.9429 44.3735 26.354 44.5911C22.7651 44.8087 19.2284 43.648 16.4665 41.3459C13.7045 39.0439 11.9256 35.7743 11.4931 32.2049C12.5046 32.5427 13.5877 32.6064 14.6318 32.3895C15.676 32.1726 16.6441 31.683 17.4375 30.9703C18.4265 31.8595 19.6819 32.3967 21.008 32.4981C22.3341 32.5996 23.6565 32.2597 24.7693 31.5313C25.0791 31.9303 25.4374 32.2892 25.8359 32.5996C24.3221 34.2157 23.4812 36.3481 23.4844 38.5625C23.4844 39.0971 23.6967 39.6098 24.0747 39.9878C24.4527 40.3658 24.9654 40.5781 25.5 40.5781C26.0346 40.5781 26.5473 40.3658 26.9253 39.9878C27.3033 39.6098 27.5156 39.0971 27.5156 38.5625C27.5156 37.3151 28.0111 36.1189 28.8931 35.2369C29.7751 34.3549 30.9714 33.8594 32.2188 33.8594C32.7533 33.8594 33.266 33.647 33.644 33.269C34.022 32.891 34.2344 32.3783 34.2344 31.8437C34.2344 31.3092 34.022 30.7965 33.644 30.4185C33.266 30.0405 32.7533 29.8281 32.2188 29.8281H29.5312C28.9967 29.8281 28.484 29.6158 28.106 29.2378C27.728 28.8598 27.5156 28.3471 27.5156 27.8125V25.7969H37.5938C38.1283 25.7969 38.641 26.0092 39.019 26.3872C39.397 26.7652 39.6094 27.2779 39.6094 27.8125V30.5Z" fill="#008E1A"/>
<path d="M61.6895 41.2637C58.1738 41.2637 55.5781 40.3496 53.9023 38.5215C52.2383 36.6934 51.4062 33.8516 51.4062 29.9961C51.4062 22.5781 54.8867 18.8691 61.8477 18.8691C62.7969 18.8691 63.7812 18.9629 64.8008 19.1504C65.8203 19.3379 66.6699 19.6016 67.3496 19.9414C68.041 20.2695 68.3867 20.6387 68.3867 21.0488C68.3867 21.3418 68.2695 21.7285 68.0352 22.209C67.8008 22.6777 67.5195 23.0938 67.1914 23.457C66.875 23.8203 66.5938 24.002 66.3477 24.002C66.2891 24.002 66.1309 23.9434 65.873 23.8262C65.3105 23.5918 64.7188 23.3984 64.0977 23.2461C63.4883 23.082 62.709 23 61.7598 23C59.9199 23 58.5547 23.5859 57.6641 24.7578C56.7852 25.918 56.3457 27.6758 56.3457 30.0312C56.3457 32.3867 56.791 34.1621 57.6816 35.3574C58.5723 36.5527 59.9082 37.1504 61.6895 37.1504C62.6152 37.1504 63.418 37.0566 64.0977 36.8691C64.7891 36.6816 65.4629 36.4414 66.1191 36.1484C66.1543 36.1367 66.2598 36.0957 66.4355 36.0254C66.6113 35.9434 66.7402 35.9023 66.8223 35.9023C67.127 35.9023 67.4199 36.084 67.7012 36.4473C67.9824 36.7988 68.2109 37.2031 68.3867 37.6602C68.5625 38.1055 68.6504 38.4277 68.6504 38.627C68.6504 39.2012 68.2637 39.6875 67.4902 40.0859C66.7285 40.4844 65.8027 40.7832 64.7129 40.9824C63.6348 41.1699 62.627 41.2637 61.6895 41.2637ZM75.9102 41.2637C74.4219 41.2637 73.2852 40.8477 72.5 40.0156C71.7266 39.1719 71.3398 37.8945 71.3398 36.1836V18.4473C71.3398 17.7676 71.9668 17.4277 73.2207 17.4277H74.0996C74.7441 17.4277 75.2129 17.5156 75.5059 17.6914C75.8105 17.8555 75.9629 18.1074 75.9629 18.4473V36.2363C75.9629 36.7168 76.0508 37.0625 76.2266 37.2734C76.4023 37.4844 76.6953 37.5898 77.1055 37.5898C77.2109 37.5898 77.3691 37.5664 77.5801 37.5195C77.6387 37.5078 77.6973 37.4961 77.7559 37.4844C77.8145 37.4727 77.8789 37.4668 77.9492 37.4668C78.125 37.4668 78.2832 37.625 78.4238 37.9414C78.5762 38.2461 78.6934 38.5918 78.7754 38.9785C78.8574 39.3535 78.8984 39.5996 78.8984 39.7168C78.8984 40.748 77.9023 41.2637 75.9102 41.2637ZM85.1387 41.2637C83.5684 41.2637 82.4082 40.8535 81.6582 40.0332C80.9082 39.2012 80.5332 37.918 80.5332 36.1836V25.584C80.5332 25.2559 80.6855 25.0098 80.9902 24.8457C81.2949 24.6816 81.7695 24.5996 82.4141 24.5996H83.2754C83.9199 24.5996 84.3945 24.6816 84.6992 24.8457C85.0039 25.0098 85.1562 25.2559 85.1562 25.584V35.4805C85.1562 36.125 85.3027 36.6113 85.5957 36.9395C85.8887 37.2676 86.3691 37.4316 87.0371 37.4316C87.6113 37.4316 88.1094 37.25 88.5312 36.8867C88.9648 36.5117 89.2988 36.0898 89.5332 35.6211V25.584C89.5332 25.2559 89.6855 25.0098 89.9902 24.8457C90.2949 24.6816 90.7695 24.5996 91.4141 24.5996H92.2754C92.9199 24.5996 93.3945 24.6816 93.6992 24.8457C94.0039 25.0098 94.1562 25.2559 94.1562 25.584V35.4805C94.1562 36.4648 94.1797 37.2383 94.2266 37.8008C94.2852 38.3516 94.3555 38.8672 94.4375 39.3477C94.4961 39.6641 94.5254 39.8867 94.5254 40.0156C94.5254 40.25 94.3086 40.4434 93.875 40.5957C93.4414 40.748 92.9434 40.8594 92.3809 40.9297C91.8301 41 91.3848 41.0352 91.0449 41.0352C90.6699 41.0352 90.4004 40.8887 90.2363 40.5957C90.084 40.291 89.9609 39.8633 89.8672 39.3125L89.7793 38.873C89.2871 39.541 88.625 40.1094 87.793 40.5781C86.9727 41.0352 86.0879 41.2637 85.1387 41.2637ZM103.068 41.2637C101.58 41.2637 100.443 40.8477 99.6582 40.0156C98.8848 39.1719 98.498 37.8945 98.498 36.1836V28.3086H98.0059C97.6777 28.3086 97.4375 28.1855 97.2852 27.9395C97.1445 27.6934 97.0742 27.2949 97.0742 26.7441V26.2168C97.0742 25.666 97.1445 25.2676 97.2852 25.0215C97.4375 24.7754 97.6777 24.6523 98.0059 24.6523H98.498L98.9023 21.6816C98.9961 21.0254 99.5586 20.6973 100.59 20.6973H101.574C102.113 20.6973 102.506 20.7793 102.752 20.9434C103.01 21.1074 103.139 21.3535 103.139 21.6816V24.6523H104.668C104.996 24.6523 105.23 24.7754 105.371 25.0215C105.523 25.2676 105.6 25.666 105.6 26.2168V26.7441C105.6 27.2949 105.523 27.6934 105.371 27.9395C105.23 28.1855 104.996 28.3086 104.668 28.3086H103.139V36.2363C103.139 36.7168 103.221 37.0625 103.385 37.2734C103.561 37.4844 103.848 37.5898 104.246 37.5898C104.363 37.5898 104.521 37.5723 104.721 37.5371C104.92 37.4902 105.043 37.4668 105.09 37.4668C105.277 37.4668 105.441 37.625 105.582 37.9414C105.734 38.2461 105.852 38.5859 105.934 38.9609C106.027 39.3359 106.074 39.5879 106.074 39.7168C106.074 40.748 105.072 41.2637 103.068 41.2637ZM115.988 41.2637C113.328 41.2637 111.354 40.5781 110.064 39.207C108.775 37.8242 108.131 35.7324 108.131 32.9316C108.131 30.1074 108.781 27.9805 110.082 26.5508C111.383 25.1211 113.41 24.4062 116.164 24.4062C116.949 24.4062 117.74 24.4941 118.537 24.6699C119.346 24.834 120.014 25.0801 120.541 25.4082C121.08 25.7246 121.35 26.1113 121.35 26.5684C121.35 26.7559 121.244 27.0488 121.033 27.4473C120.834 27.8457 120.6 28.2031 120.33 28.5195C120.072 28.8242 119.855 28.9766 119.68 28.9766C119.598 28.9766 119.416 28.8945 119.135 28.7305C118.689 28.5195 118.268 28.3555 117.869 28.2383C117.471 28.1094 116.984 28.0449 116.41 28.0449C115.18 28.0449 114.283 28.4375 113.721 29.2227C113.158 29.9961 112.877 31.1914 112.877 32.8086C112.877 34.4375 113.141 35.6445 113.668 36.4297C114.207 37.2031 115.062 37.5898 116.234 37.5898C116.879 37.5898 117.441 37.5254 117.922 37.3965C118.402 37.2559 118.859 37.0801 119.293 36.8691C119.375 36.834 119.475 36.793 119.592 36.7461C119.709 36.6992 119.797 36.6758 119.855 36.6758C120.066 36.6758 120.295 36.8281 120.541 37.1328C120.799 37.4258 121.016 37.7656 121.191 38.1523C121.379 38.5391 121.473 38.8379 121.473 39.0488C121.473 39.5879 121.121 40.0215 120.418 40.3496C119.715 40.6777 118.93 40.9121 118.062 41.0527C117.195 41.1934 116.504 41.2637 115.988 41.2637ZM125.92 41.0527C124.666 41.0527 124.039 40.7246 124.039 40.0684V18.4473C124.039 18.1074 124.191 17.8555 124.496 17.6914C124.801 17.5156 125.275 17.4277 125.92 17.4277H126.781C128.035 17.4277 128.662 17.7676 128.662 18.4473V26.5156C129.178 25.8945 129.816 25.3906 130.578 25.0039C131.352 24.6055 132.178 24.4062 133.057 24.4062C134.627 24.4062 135.805 24.8223 136.59 25.6543C137.375 26.4746 137.768 27.7402 137.768 29.4512V40.0684C137.768 40.7246 137.146 41.0527 135.904 41.0527H135.043C133.777 41.0527 133.145 40.7246 133.145 40.0684V30.1543C133.145 28.8652 132.477 28.2207 131.141 28.2207C130.578 28.2207 130.08 28.4082 129.646 28.7832C129.225 29.1465 128.896 29.5625 128.662 30.0312V40.0684C128.662 40.7246 128.035 41.0527 126.781 41.0527H125.92ZM155.205 41.2637C153.729 41.2637 152.428 41.1172 151.303 40.8242C150.189 40.5195 149.334 40.1504 148.736 39.7168C148.15 39.2832 147.857 38.873 147.857 38.4863C147.857 38.1816 147.969 37.8066 148.191 37.3613C148.426 36.916 148.701 36.5352 149.018 36.2188C149.334 35.8906 149.598 35.7266 149.809 35.7266C149.938 35.7266 150.213 35.8379 150.635 36.0605C151.268 36.3887 151.865 36.6523 152.428 36.8516C153.002 37.0508 153.658 37.1504 154.396 37.1504C155.217 37.1504 155.908 36.9922 156.471 36.6758C157.045 36.3477 157.332 35.7793 157.332 34.9707C157.332 34.502 157.186 34.0977 156.893 33.7578C156.6 33.418 156.225 33.1309 155.768 32.8965C155.311 32.6621 154.689 32.3867 153.904 32.0703L152.516 31.4727C151.672 31.0625 150.945 30.6113 150.336 30.1191C149.738 29.627 149.246 28.9766 148.859 28.168C148.484 27.3594 148.297 26.3691 148.297 25.1973C148.297 23.7676 148.648 22.5781 149.352 21.6289C150.055 20.6797 150.969 19.9824 152.094 19.5371C153.219 19.0918 154.426 18.8691 155.715 18.8691C156.77 18.8691 157.725 18.9805 158.58 19.2031C159.436 19.4141 160.104 19.6895 160.584 20.0293C161.076 20.3691 161.322 20.709 161.322 21.0488C161.322 21.3301 161.229 21.6934 161.041 22.1387C160.865 22.5723 160.643 22.9531 160.373 23.2812C160.104 23.6094 159.852 23.7734 159.617 23.7734C159.512 23.7734 159.324 23.7148 159.055 23.5977C158.621 23.4219 158.182 23.2812 157.736 23.1758C157.303 23.0586 156.77 23 156.137 23C155.047 23 154.291 23.1758 153.869 23.5273C153.447 23.8672 153.236 24.2715 153.236 24.7402C153.236 25.2793 153.377 25.7305 153.658 26.0938C153.951 26.457 154.314 26.7559 154.748 26.9902C155.193 27.2246 155.809 27.4941 156.594 27.7988C157.777 28.3027 158.744 28.7832 159.494 29.2402C160.244 29.6855 160.889 30.3301 161.428 31.1738C161.979 32.0176 162.254 33.0957 162.254 34.4082C162.254 36.0137 161.914 37.332 161.234 38.3633C160.566 39.3828 159.699 40.1211 158.633 40.5781C157.578 41.0352 156.436 41.2637 155.205 41.2637ZM169.795 41.2637C168.307 41.2637 167.17 40.8477 166.385 40.0156C165.611 39.1719 165.225 37.8945 165.225 36.1836V28.3086H164.732C164.404 28.3086 164.164 28.1855 164.012 27.9395C163.871 27.6934 163.801 27.2949 163.801 26.7441V26.2168C163.801 25.666 163.871 25.2676 164.012 25.0215C164.164 24.7754 164.404 24.6523 164.732 24.6523H165.225L165.629 21.6816C165.723 21.0254 166.285 20.6973 167.316 20.6973H168.301C168.84 20.6973 169.232 20.7793 169.479 20.9434C169.736 21.1074 169.865 21.3535 169.865 21.6816V24.6523H171.395C171.723 24.6523 171.957 24.7754 172.098 25.0215C172.25 25.2676 172.326 25.666 172.326 26.2168V26.7441C172.326 27.2949 172.25 27.6934 172.098 27.9395C171.957 28.1855 171.723 28.3086 171.395 28.3086H169.865V36.2363C169.865 36.7168 169.947 37.0625 170.111 37.2734C170.287 37.4844 170.574 37.5898 170.973 37.5898C171.09 37.5898 171.248 37.5723 171.447 37.5371C171.646 37.4902 171.77 37.4668 171.816 37.4668C172.004 37.4668 172.168 37.625 172.309 37.9414C172.461 38.2461 172.578 38.5859 172.66 38.9609C172.754 39.3359 172.801 39.5879 172.801 39.7168C172.801 40.748 171.799 41.2637 169.795 41.2637ZM179.99 41.2637C178.42 41.2637 177.26 40.8535 176.51 40.0332C175.76 39.2012 175.385 37.918 175.385 36.1836V25.584C175.385 25.2559 175.537 25.0098 175.842 24.8457C176.146 24.6816 176.621 24.5996 177.266 24.5996H178.127C178.771 24.5996 179.246 24.6816 179.551 24.8457C179.855 25.0098 180.008 25.2559 180.008 25.584V35.4805C180.008 36.125 180.154 36.6113 180.447 36.9395C180.74 37.2676 181.221 37.4316 181.889 37.4316C182.463 37.4316 182.961 37.25 183.383 36.8867C183.816 36.5117 184.15 36.0898 184.385 35.6211V25.584C184.385 25.2559 184.537 25.0098 184.842 24.8457C185.146 24.6816 185.621 24.5996 186.266 24.5996H187.127C187.771 24.5996 188.246 24.6816 188.551 24.8457C188.855 25.0098 189.008 25.2559 189.008 25.584V35.4805C189.008 36.4648 189.031 37.2383 189.078 37.8008C189.137 38.3516 189.207 38.8672 189.289 39.3477C189.348 39.6641 189.377 39.8867 189.377 40.0156C189.377 40.25 189.16 40.4434 188.727 40.5957C188.293 40.748 187.795 40.8594 187.232 40.9297C186.682 41 186.236 41.0352 185.896 41.0352C185.521 41.0352 185.252 40.8887 185.088 40.5957C184.936 40.291 184.812 39.8633 184.719 39.3125L184.631 38.873C184.139 39.541 183.477 40.1094 182.645 40.5781C181.824 41.0352 180.939 41.2637 179.99 41.2637ZM198.113 41.2637C196.977 41.2637 195.963 40.9355 195.072 40.2793C194.193 39.6113 193.502 38.6445 192.998 37.3789C192.506 36.1016 192.26 34.5781 192.26 32.8086C192.26 31.1094 192.518 29.627 193.033 28.3613C193.549 27.0957 194.299 26.123 195.283 25.4434C196.279 24.752 197.469 24.4062 198.852 24.4062C200.094 24.4062 201.154 24.7285 202.033 25.373V18.4473C202.033 17.7676 202.66 17.4277 203.914 17.4277H204.793C205.438 17.4277 205.906 17.5156 206.199 17.6914C206.504 17.8555 206.656 18.1074 206.656 18.4473V35.4805C206.656 36.4531 206.68 37.209 206.727 37.748C206.785 38.2871 206.861 38.8203 206.955 39.3477C207.014 39.6641 207.043 39.8867 207.043 40.0156C207.043 40.25 206.82 40.4434 206.375 40.5957C205.941 40.748 205.443 40.8594 204.881 40.9297C204.33 41 203.885 41.0352 203.545 41.0352C203.182 41.0352 202.924 40.8945 202.771 40.6133C202.631 40.332 202.502 39.9219 202.385 39.3828L202.279 38.9082C201.904 39.5996 201.348 40.168 200.609 40.6133C199.871 41.0469 199.039 41.2637 198.113 41.2637ZM199.484 37.4668C200.469 37.4668 201.318 36.8516 202.033 35.6211V28.6426C201.295 28.2441 200.568 28.0449 199.854 28.0449C197.908 28.0449 196.936 29.6328 196.936 32.8086C196.936 35.9141 197.785 37.4668 199.484 37.4668ZM212.352 21.9629C211.695 21.9629 211.215 21.8809 210.91 21.7168C210.617 21.5527 210.471 21.3008 210.471 20.9609V18.4473C210.471 18.1074 210.623 17.8555 210.928 17.6914C211.232 17.5156 211.707 17.4277 212.352 17.4277H213.213C213.857 17.4277 214.332 17.5156 214.637 17.6914C214.941 17.8555 215.094 18.1074 215.094 18.4473V20.9609C215.094 21.3008 214.941 21.5527 214.637 21.7168C214.344 21.8809 213.869 21.9629 213.213 21.9629H212.352ZM212.352 41.0527C211.098 41.0527 210.471 40.7246 210.471 40.0684V25.584C210.471 25.2559 210.623 25.0098 210.928 24.8457C211.232 24.6816 211.707 24.5996 212.352 24.5996H213.213C213.857 24.5996 214.332 24.6816 214.637 24.8457C214.941 25.0098 215.094 25.2559 215.094 25.584V40.0684C215.094 40.7246 214.467 41.0527 213.213 41.0527H212.352ZM225.834 41.2637C223.361 41.2637 221.475 40.5371 220.174 39.084C218.885 37.6309 218.24 35.5391 218.24 32.8086C218.24 30.0898 218.885 28.0098 220.174 26.5684C221.475 25.127 223.361 24.4062 225.834 24.4062C228.307 24.4062 230.182 25.127 231.459 26.5684C232.748 27.998 233.393 30.0781 233.393 32.8086C233.393 35.5391 232.748 37.6309 231.459 39.084C230.182 40.5371 228.307 41.2637 225.834 41.2637ZM225.834 37.5898C226.818 37.5898 227.539 37.1914 227.996 36.3945C228.465 35.5977 228.699 34.4023 228.699 32.8086C228.699 31.2266 228.465 30.0371 227.996 29.2402C227.539 28.4434 226.818 28.0449 225.834 28.0449C223.889 28.0449 222.916 29.6328 222.916 32.8086C222.916 34.3906 223.15 35.5859 223.619 36.3945C224.1 37.1914 224.838 37.5898 225.834 37.5898Z" fill="#0060CD"/>
</svg>
